<svg width="60" height="60" viewBox="0 0 60 60" fill="none" xmlns="http://www.w3.org/2000/svg">
<rect width="59.0769" height="59.0769" transform="translate(0.846191 0.461548)" fill="white" fill-opacity="0.01"/>
<path fill-rule="evenodd" clip-rule="evenodd" d="M27.8389 12.8538C28.608 13.6228 28.608 14.8696 27.8389 15.6387L15.4468 28.0308H50.0772C51.1647 28.0308 52.0465 28.9125 52.0465 30.0001C52.0465 31.0876 51.1647 31.9693 50.0772 31.9693H15.4468L27.8389 44.3613C28.608 45.1305 28.608 46.3774 27.8389 47.1466C27.0699 47.9153 25.8231 47.9153 25.054 47.1466L9.30019 31.3925C8.53112 30.6235 8.53112 29.3766 9.30019 28.6076L25.054 12.8538C25.8231 12.0847 27.0699 12.0847 27.8389 12.8538Z" fill="white"/>
</svg>
