<svg width="60" height="60" viewBox="0 0 60 60" fill="none" xmlns="http://www.w3.org/2000/svg">
<rect width="59.0769" height="59.0769" transform="translate(0.923096 0.461548)" fill="white" fill-opacity="0.01"/>
<path fill-rule="evenodd" clip-rule="evenodd" d="M33.0079 12.8538C33.7769 12.0847 35.0237 12.0847 35.7927 12.8538L51.5468 28.6076C52.3156 29.3766 52.3156 30.6235 51.5468 31.3925L35.7927 47.1466C35.0237 47.9153 33.7769 47.9153 33.0079 47.1466C32.2388 46.3774 32.2388 45.1305 33.0079 44.3613L45.4 31.9693H10.7695C9.68196 31.9693 8.80029 31.0876 8.80029 30.0001C8.80029 28.9125 9.68196 28.0308 10.7695 28.0308H45.4L33.0079 15.6387C32.2388 14.8696 32.2388 13.6228 33.0079 12.8538Z" fill="white"/>
</svg>
