<svg width="24" height="32" viewBox="0 0 24 32" fill="none" xmlns="http://www.w3.org/2000/svg">
<path d="M11.8565 0C5.03318 0.738833 1.24189 10.7735 0.203423 15.6649H4.78656C6.62596 7.95648 10.3842 4.65361 11.8565 4.65361C15.006 4.65361 18.2365 12.5571 18.9678 15.6649H23.6086C20.7277 3.39138 14.3826 -2.80119e-06 11.8565 0Z" fill="url(#paint0_linear_23_1027)"/>
<path d="M11.8342 31.3464C2.06626 30.8269 -0.121831 22.8004 0.00511734 18.8521H4.46853C4.59801 25.7009 8.26777 26.7998 11.8342 26.7998C18.0654 26.7998 19.4181 21.6092 19.3492 18.8521H23.794C23.593 28.9459 15.7371 31.3874 11.8342 31.3464Z" fill="url(#paint1_linear_23_1027)"/>
<defs>
<linearGradient id="paint0_linear_23_1027" x1="11.906" y1="15.6649" x2="11.906" y2="0" gradientUnits="userSpaceOnUse">
<stop stop-color="#EA9CB0"/>
<stop offset="1" stop-color="#F9C32F"/>
</linearGradient>
<linearGradient id="paint1_linear_23_1027" x1="11.897" y1="31.3469" x2="11.897" y2="18.8521" gradientUnits="userSpaceOnUse">
<stop stop-color="#813AFB"/>
<stop offset="1" stop-color="#8A90F4"/>
</linearGradient>
</defs>
</svg>
